<mxfile host="Electron" modified="2024-02-24T18:54:48.515Z" agent="Mozilla/5.0 (Windows NT 10.0; Win64; x64) AppleWebKit/537.36 (KHTML, like Gecko) draw.io/23.1.5 Chrome/120.0.6099.109 Electron/28.1.0 Safari/537.36" etag="vYsDqnlOVSOJ9c7k2JP1" version="23.1.5" type="device" pages="3">
  <diagram id="TmMo2t7VDJF81Jm8d4ca" name="System Operations">
    <mxGraphModel dx="977" dy="628" grid="1" gridSize="10" guides="1" tooltips="1" connect="1" arrows="1" fold="1" page="1" pageScale="1" pageWidth="413" pageHeight="291" math="0" shadow="0">
      <root>
        <mxCell id="0" />
        <mxCell id="1" parent="0" />
        <mxCell id="LyJgjBcbTKRW9JKr0hDO-2" value="System" style="swimlane;fontStyle=0;childLayout=stackLayout;horizontal=1;startSize=26;fillColor=none;horizontalStack=0;resizeParent=1;resizeParentMax=0;resizeLast=0;collapsible=1;marginBottom=0;whiteSpace=wrap;html=1;" parent="1" vertex="1">
          <mxGeometry x="40" y="50" width="310" height="52" as="geometry" />
        </mxCell>
        <mxCell id="LyJgjBcbTKRW9JKr0hDO-3" value="viewFlights(Airport source, Airport destination)" style="text;strokeColor=none;fillColor=none;align=left;verticalAlign=top;spacingLeft=4;spacingRight=4;overflow=hidden;rotatable=0;points=[[0,0.5],[1,0.5]];portConstraint=eastwest;whiteSpace=wrap;html=1;" parent="LyJgjBcbTKRW9JKr0hDO-2" vertex="1">
          <mxGeometry y="26" width="310" height="26" as="geometry" />
        </mxCell>
        <mxCell id="LyJgjBcbTKRW9JKr0hDO-6" value="Contract CO1: viewFlights&lt;br&gt;Operation: viewFlights(Airport source, Airport destination)&lt;br&gt;Cross References: View flights, given a source-destination pair.&lt;br&gt;Preconditions: System has logs." style="text;whiteSpace=wrap;html=1;" parent="1" vertex="1">
          <mxGeometry x="40" y="140" width="350" height="80" as="geometry" />
        </mxCell>
      </root>
    </mxGraphModel>
  </diagram>
  <diagram name="Use Case 1 - System Sequence" id="RMzHkWCXxdK3PGaxcr2k">
    <mxGraphModel dx="977" dy="628" grid="1" gridSize="10" guides="1" tooltips="1" connect="1" arrows="1" fold="1" page="1" pageScale="1" pageWidth="1169" pageHeight="827" math="0" shadow="0">
      <root>
        <mxCell id="0" />
        <mxCell id="1" parent="0" />
        <mxCell id="5w287uKIVsI3eDiW6GEO-1" value="&lt;u&gt;:Unregistered Guest&lt;/u&gt;" style="shape=umlActor;verticalLabelPosition=bottom;verticalAlign=top;html=1;" parent="1" vertex="1">
          <mxGeometry x="575.75" y="140" width="30" height="60" as="geometry" />
        </mxCell>
        <mxCell id="5w287uKIVsI3eDiW6GEO-2" value=":&lt;u&gt;System&lt;/u&gt;" style="html=1;whiteSpace=wrap;" parent="1" vertex="1">
          <mxGeometry x="875.75" y="160" width="100" height="40" as="geometry" />
        </mxCell>
        <mxCell id="5w287uKIVsI3eDiW6GEO-3" value="" style="endArrow=none;dashed=1;html=1;rounded=0;" parent="1" edge="1">
          <mxGeometry width="50" height="50" relative="1" as="geometry">
            <mxPoint x="574.75" y="700" as="sourcePoint" />
            <mxPoint x="574.7" y="220" as="targetPoint" />
          </mxGeometry>
        </mxCell>
        <mxCell id="5w287uKIVsI3eDiW6GEO-5" value="" style="endArrow=none;dashed=1;html=1;rounded=0;" parent="1" edge="1">
          <mxGeometry width="50" height="50" relative="1" as="geometry">
            <mxPoint x="925.75" y="690" as="sourcePoint" />
            <mxPoint x="925.45" y="200" as="targetPoint" />
          </mxGeometry>
        </mxCell>
        <mxCell id="5w287uKIVsI3eDiW6GEO-6" value="" style="endArrow=classic;html=1;rounded=0;" parent="1" edge="1">
          <mxGeometry width="50" height="50" relative="1" as="geometry">
            <mxPoint x="595.75" y="250" as="sourcePoint" />
            <mxPoint x="915.75" y="250" as="targetPoint" />
          </mxGeometry>
        </mxCell>
        <mxCell id="5w287uKIVsI3eDiW6GEO-7" value="viewFlights(Airport source, Airport Destination)" style="edgeLabel;html=1;align=center;verticalAlign=middle;resizable=0;points=[];" parent="5w287uKIVsI3eDiW6GEO-6" vertex="1" connectable="0">
          <mxGeometry x="-0.1339" relative="1" as="geometry">
            <mxPoint x="19" y="-10" as="offset" />
          </mxGeometry>
        </mxCell>
        <mxCell id="5w287uKIVsI3eDiW6GEO-10" value="&lt;u&gt;:System Admin&lt;/u&gt;" style="shape=umlActor;verticalLabelPosition=bottom;verticalAlign=top;html=1;" parent="1" vertex="1">
          <mxGeometry x="382" y="140" width="30" height="60" as="geometry" />
        </mxCell>
        <mxCell id="5w287uKIVsI3eDiW6GEO-11" value="" style="endArrow=none;dashed=1;html=1;rounded=0;" parent="1" edge="1">
          <mxGeometry width="50" height="50" relative="1" as="geometry">
            <mxPoint x="396.75" y="700" as="sourcePoint" />
            <mxPoint x="396.7" y="220" as="targetPoint" />
          </mxGeometry>
        </mxCell>
        <mxCell id="5w287uKIVsI3eDiW6GEO-16" value="&lt;u&gt;:Airline Admin&lt;/u&gt;" style="shape=umlActor;verticalLabelPosition=bottom;verticalAlign=top;html=1;" parent="1" vertex="1">
          <mxGeometry x="290" y="140" width="30" height="60" as="geometry" />
        </mxCell>
        <mxCell id="5w287uKIVsI3eDiW6GEO-17" value="" style="endArrow=none;dashed=1;html=1;rounded=0;" parent="1" edge="1">
          <mxGeometry width="50" height="50" relative="1" as="geometry">
            <mxPoint x="304.75" y="690" as="sourcePoint" />
            <mxPoint x="304.7" y="220" as="targetPoint" />
          </mxGeometry>
        </mxCell>
        <mxCell id="5w287uKIVsI3eDiW6GEO-20" value="&lt;u&gt;:Airport Admin&lt;/u&gt;" style="shape=umlActor;verticalLabelPosition=bottom;verticalAlign=top;html=1;" parent="1" vertex="1">
          <mxGeometry x="200" y="140" width="30" height="60" as="geometry" />
        </mxCell>
        <mxCell id="5w287uKIVsI3eDiW6GEO-21" value="" style="endArrow=none;dashed=1;html=1;rounded=0;" parent="1" edge="1">
          <mxGeometry width="50" height="50" relative="1" as="geometry">
            <mxPoint x="215.75" y="700" as="sourcePoint" />
            <mxPoint x="214.7" y="220" as="targetPoint" />
          </mxGeometry>
        </mxCell>
        <mxCell id="5w287uKIVsI3eDiW6GEO-22" value="" style="endArrow=classic;html=1;rounded=0;dashed=1;" parent="1" edge="1">
          <mxGeometry width="50" height="50" relative="1" as="geometry">
            <mxPoint x="925.75" y="290" as="sourcePoint" />
            <mxPoint x="595.75" y="290" as="targetPoint" />
          </mxGeometry>
        </mxCell>
        <mxCell id="5w287uKIVsI3eDiW6GEO-24" value="non-private flight array (flight number, source, destination)" style="edgeLabel;html=1;align=center;verticalAlign=middle;resizable=0;points=[];" parent="5w287uKIVsI3eDiW6GEO-22" vertex="1" connectable="0">
          <mxGeometry x="0.1385" y="-1" relative="1" as="geometry">
            <mxPoint x="18" y="-9" as="offset" />
          </mxGeometry>
        </mxCell>
        <mxCell id="5w287uKIVsI3eDiW6GEO-26" value="" style="endArrow=classic;html=1;rounded=0;" parent="1" edge="1">
          <mxGeometry width="50" height="50" relative="1" as="geometry">
            <mxPoint x="405.75" y="420" as="sourcePoint" />
            <mxPoint x="915.75" y="420" as="targetPoint" />
          </mxGeometry>
        </mxCell>
        <mxCell id="5w287uKIVsI3eDiW6GEO-27" value="viewFlights(Airport source, Airport Destination)" style="edgeLabel;html=1;align=center;verticalAlign=middle;resizable=0;points=[];" parent="5w287uKIVsI3eDiW6GEO-26" vertex="1" connectable="0">
          <mxGeometry x="-0.1339" relative="1" as="geometry">
            <mxPoint x="19" y="-10" as="offset" />
          </mxGeometry>
        </mxCell>
        <mxCell id="5w287uKIVsI3eDiW6GEO-29" value="" style="endArrow=classic;html=1;rounded=0;dashed=1;" parent="1" edge="1">
          <mxGeometry width="50" height="50" relative="1" as="geometry">
            <mxPoint x="915.75" y="460" as="sourcePoint" />
            <mxPoint x="405.75" y="460" as="targetPoint" />
          </mxGeometry>
        </mxCell>
        <mxCell id="5w287uKIVsI3eDiW6GEO-30" value="non-private flights array (flight number, source, destination, airline, aircraft)" style="edgeLabel;html=1;align=center;verticalAlign=middle;resizable=0;points=[];" parent="5w287uKIVsI3eDiW6GEO-29" vertex="1" connectable="0">
          <mxGeometry x="0.1385" y="-1" relative="1" as="geometry">
            <mxPoint x="18" y="-9" as="offset" />
          </mxGeometry>
        </mxCell>
        <mxCell id="5w287uKIVsI3eDiW6GEO-31" value="" style="endArrow=classic;html=1;rounded=0;" parent="1" edge="1">
          <mxGeometry width="50" height="50" relative="1" as="geometry">
            <mxPoint x="315.75" y="500" as="sourcePoint" />
            <mxPoint x="915.75" y="500" as="targetPoint" />
          </mxGeometry>
        </mxCell>
        <mxCell id="5w287uKIVsI3eDiW6GEO-32" value="viewFlights(Airport source, Airport Destination)" style="edgeLabel;html=1;align=center;verticalAlign=middle;resizable=0;points=[];" parent="5w287uKIVsI3eDiW6GEO-31" vertex="1" connectable="0">
          <mxGeometry x="-0.1339" relative="1" as="geometry">
            <mxPoint x="19" y="-10" as="offset" />
          </mxGeometry>
        </mxCell>
        <mxCell id="5w287uKIVsI3eDiW6GEO-33" value="" style="endArrow=classic;html=1;rounded=0;dashed=1;" parent="1" edge="1">
          <mxGeometry width="50" height="50" relative="1" as="geometry">
            <mxPoint x="915.75" y="540" as="sourcePoint" />
            <mxPoint x="315.75" y="540" as="targetPoint" />
          </mxGeometry>
        </mxCell>
        <mxCell id="5w287uKIVsI3eDiW6GEO-34" value="non-private flights array (flight number, source, destination, airline, aircraft)" style="edgeLabel;html=1;align=center;verticalAlign=middle;resizable=0;points=[];" parent="5w287uKIVsI3eDiW6GEO-33" vertex="1" connectable="0">
          <mxGeometry x="0.1385" y="-1" relative="1" as="geometry">
            <mxPoint x="18" y="-9" as="offset" />
          </mxGeometry>
        </mxCell>
        <mxCell id="5w287uKIVsI3eDiW6GEO-43" value="" style="endArrow=classic;html=1;rounded=0;" parent="1" edge="1">
          <mxGeometry width="50" height="50" relative="1" as="geometry">
            <mxPoint x="225.75" y="580" as="sourcePoint" />
            <mxPoint x="915.75" y="580" as="targetPoint" />
          </mxGeometry>
        </mxCell>
        <mxCell id="5w287uKIVsI3eDiW6GEO-44" value="viewFlights(Airport source, Airport Destination)" style="edgeLabel;html=1;align=center;verticalAlign=middle;resizable=0;points=[];" parent="5w287uKIVsI3eDiW6GEO-43" vertex="1" connectable="0">
          <mxGeometry x="-0.1339" relative="1" as="geometry">
            <mxPoint x="19" y="-10" as="offset" />
          </mxGeometry>
        </mxCell>
        <mxCell id="5w287uKIVsI3eDiW6GEO-45" value="" style="endArrow=classic;html=1;rounded=0;dashed=1;" parent="1" edge="1">
          <mxGeometry width="50" height="50" relative="1" as="geometry">
            <mxPoint x="915.75" y="620" as="sourcePoint" />
            <mxPoint x="225.75" y="620" as="targetPoint" />
          </mxGeometry>
        </mxCell>
        <mxCell id="5w287uKIVsI3eDiW6GEO-46" value="non-private flight array (flight number, source, destination, airline, aircraft)" style="edgeLabel;html=1;align=center;verticalAlign=middle;resizable=0;points=[];" parent="5w287uKIVsI3eDiW6GEO-45" vertex="1" connectable="0">
          <mxGeometry x="0.1385" y="-1" relative="1" as="geometry">
            <mxPoint x="18" y="-9" as="offset" />
          </mxGeometry>
        </mxCell>
        <mxCell id="jdWckDoDZe-MMC0l_fd6-1" value="" style="endArrow=classic;html=1;rounded=0;dashed=1;" parent="1" edge="1">
          <mxGeometry width="50" height="50" relative="1" as="geometry">
            <mxPoint x="915.75" y="660" as="sourcePoint" />
            <mxPoint x="225.75" y="660" as="targetPoint" />
          </mxGeometry>
        </mxCell>
        <mxCell id="jdWckDoDZe-MMC0l_fd6-2" value="private flight array (flight number, source, destination, airline, aircraft) where source or destination = :Airport" style="edgeLabel;html=1;align=center;verticalAlign=middle;resizable=0;points=[];" parent="jdWckDoDZe-MMC0l_fd6-1" vertex="1" connectable="0">
          <mxGeometry x="0.1385" y="-1" relative="1" as="geometry">
            <mxPoint x="51" y="-9" as="offset" />
          </mxGeometry>
        </mxCell>
        <mxCell id="jdWckDoDZe-MMC0l_fd6-3" value="&lt;u&gt;:Resisterd Guest&lt;/u&gt;" style="shape=umlActor;verticalLabelPosition=bottom;verticalAlign=top;html=1;" parent="1" vertex="1">
          <mxGeometry x="471" y="140" width="30" height="60" as="geometry" />
        </mxCell>
        <mxCell id="jdWckDoDZe-MMC0l_fd6-4" value="" style="endArrow=none;dashed=1;html=1;rounded=0;" parent="1" edge="1">
          <mxGeometry width="50" height="50" relative="1" as="geometry">
            <mxPoint x="485.75" y="690" as="sourcePoint" />
            <mxPoint x="484.7" y="220" as="targetPoint" />
          </mxGeometry>
        </mxCell>
        <mxCell id="jdWckDoDZe-MMC0l_fd6-8" value="" style="endArrow=classic;html=1;rounded=0;" parent="1" edge="1">
          <mxGeometry width="50" height="50" relative="1" as="geometry">
            <mxPoint x="500" y="340" as="sourcePoint" />
            <mxPoint x="920" y="340" as="targetPoint" />
          </mxGeometry>
        </mxCell>
        <mxCell id="jdWckDoDZe-MMC0l_fd6-9" value="viewFlights(Airport source, Airport Destination)" style="edgeLabel;html=1;align=center;verticalAlign=middle;resizable=0;points=[];" parent="jdWckDoDZe-MMC0l_fd6-8" vertex="1" connectable="0">
          <mxGeometry x="-0.1339" relative="1" as="geometry">
            <mxPoint x="19" y="-10" as="offset" />
          </mxGeometry>
        </mxCell>
        <mxCell id="jdWckDoDZe-MMC0l_fd6-10" value="" style="endArrow=classic;html=1;rounded=0;dashed=1;" parent="1" edge="1">
          <mxGeometry width="50" height="50" relative="1" as="geometry">
            <mxPoint x="920" y="380" as="sourcePoint" />
            <mxPoint x="500" y="380" as="targetPoint" />
          </mxGeometry>
        </mxCell>
        <mxCell id="jdWckDoDZe-MMC0l_fd6-11" value="non-private flights array (flight number, source, destination, airline, aircraft)" style="edgeLabel;html=1;align=center;verticalAlign=middle;resizable=0;points=[];" parent="jdWckDoDZe-MMC0l_fd6-10" vertex="1" connectable="0">
          <mxGeometry x="0.1385" y="-1" relative="1" as="geometry">
            <mxPoint x="18" y="-9" as="offset" />
          </mxGeometry>
        </mxCell>
      </root>
    </mxGraphModel>
  </diagram>
  <diagram id="b4HhdpKotiz8g7xEXyag" name="UML Class Diagram">
    <mxGraphModel dx="977" dy="628" grid="1" gridSize="10" guides="1" tooltips="1" connect="1" arrows="1" fold="1" page="1" pageScale="1" pageWidth="1654" pageHeight="1169" math="0" shadow="0">
      <root>
        <mxCell id="0" />
        <mxCell id="1" parent="0" />
        <mxCell id="kDYeB55ivnxlYFSKlEMg-1" value="SysAdmin" style="swimlane;fontStyle=1;align=center;verticalAlign=top;childLayout=stackLayout;horizontal=1;startSize=26;horizontalStack=0;resizeParent=1;resizeParentMax=0;resizeLast=0;collapsible=1;marginBottom=0;whiteSpace=wrap;html=1;" parent="1" vertex="1">
          <mxGeometry x="240" y="120" width="160" height="86" as="geometry" />
        </mxCell>
        <mxCell id="kDYeB55ivnxlYFSKlEMg-2" value="&amp;nbsp;&lt;span style=&quot;white-space: pre;&quot;&gt;&#x9;&lt;/span&gt;" style="text;strokeColor=none;fillColor=none;align=left;verticalAlign=top;spacingLeft=4;spacingRight=4;overflow=hidden;rotatable=0;points=[[0,0.5],[1,0.5]];portConstraint=eastwest;whiteSpace=wrap;html=1;" parent="kDYeB55ivnxlYFSKlEMg-1" vertex="1">
          <mxGeometry y="26" width="160" height="26" as="geometry" />
        </mxCell>
        <mxCell id="kDYeB55ivnxlYFSKlEMg-3" value="" style="line;strokeWidth=1;fillColor=none;align=left;verticalAlign=middle;spacingTop=-1;spacingLeft=3;spacingRight=3;rotatable=0;labelPosition=right;points=[];portConstraint=eastwest;strokeColor=inherit;" parent="kDYeB55ivnxlYFSKlEMg-1" vertex="1">
          <mxGeometry y="52" width="160" height="8" as="geometry" />
        </mxCell>
        <mxCell id="kDYeB55ivnxlYFSKlEMg-4" value="&amp;nbsp;&lt;span style=&quot;white-space: pre;&quot;&gt;&#x9;&lt;/span&gt;" style="text;strokeColor=none;fillColor=none;align=left;verticalAlign=top;spacingLeft=4;spacingRight=4;overflow=hidden;rotatable=0;points=[[0,0.5],[1,0.5]];portConstraint=eastwest;whiteSpace=wrap;html=1;" parent="kDYeB55ivnxlYFSKlEMg-1" vertex="1">
          <mxGeometry y="60" width="160" height="26" as="geometry" />
        </mxCell>
        <mxCell id="0rImnRtAhAogELXcTt_z-22" style="edgeStyle=orthogonalEdgeStyle;rounded=0;orthogonalLoop=1;jettySize=auto;html=1;entryX=0.12;entryY=-0.017;entryDx=0;entryDy=0;endArrow=diamondThin;endFill=1;endSize=12;entryPerimeter=0;" parent="1" source="kDYeB55ivnxlYFSKlEMg-5" target="kDYeB55ivnxlYFSKlEMg-89" edge="1">
          <mxGeometry relative="1" as="geometry" />
        </mxCell>
        <mxCell id="kDYeB55ivnxlYFSKlEMg-5" value="User&amp;nbsp;" style="swimlane;fontStyle=1;align=center;verticalAlign=top;childLayout=stackLayout;horizontal=1;startSize=26;horizontalStack=0;resizeParent=1;resizeParentMax=0;resizeLast=0;collapsible=1;marginBottom=0;whiteSpace=wrap;html=1;" parent="1" vertex="1">
          <mxGeometry x="500" y="206" width="160" height="112" as="geometry" />
        </mxCell>
        <mxCell id="kDYeB55ivnxlYFSKlEMg-6" value="login: String" style="text;strokeColor=none;fillColor=none;align=left;verticalAlign=top;spacingLeft=4;spacingRight=4;overflow=hidden;rotatable=0;points=[[0,0.5],[1,0.5]];portConstraint=eastwest;whiteSpace=wrap;html=1;" parent="kDYeB55ivnxlYFSKlEMg-5" vertex="1">
          <mxGeometry y="26" width="160" height="26" as="geometry" />
        </mxCell>
        <mxCell id="0rImnRtAhAogELXcTt_z-1" value="pass: String" style="text;strokeColor=none;fillColor=none;align=left;verticalAlign=top;spacingLeft=4;spacingRight=4;overflow=hidden;rotatable=0;points=[[0,0.5],[1,0.5]];portConstraint=eastwest;whiteSpace=wrap;html=1;" parent="kDYeB55ivnxlYFSKlEMg-5" vertex="1">
          <mxGeometry y="52" width="160" height="26" as="geometry" />
        </mxCell>
        <mxCell id="kDYeB55ivnxlYFSKlEMg-7" value="" style="line;strokeWidth=1;fillColor=none;align=left;verticalAlign=middle;spacingTop=-1;spacingLeft=3;spacingRight=3;rotatable=0;labelPosition=right;points=[];portConstraint=eastwest;strokeColor=inherit;" parent="kDYeB55ivnxlYFSKlEMg-5" vertex="1">
          <mxGeometry y="78" width="160" height="8" as="geometry" />
        </mxCell>
        <mxCell id="kDYeB55ivnxlYFSKlEMg-8" value="&amp;nbsp;&lt;span style=&quot;white-space: pre;&quot;&gt;&#x9;&lt;/span&gt;" style="text;strokeColor=none;fillColor=none;align=left;verticalAlign=top;spacingLeft=4;spacingRight=4;overflow=hidden;rotatable=0;points=[[0,0.5],[1,0.5]];portConstraint=eastwest;whiteSpace=wrap;html=1;" parent="kDYeB55ivnxlYFSKlEMg-5" vertex="1">
          <mxGeometry y="86" width="160" height="26" as="geometry" />
        </mxCell>
        <mxCell id="kDYeB55ivnxlYFSKlEMg-10" value="AirportAdmin" style="swimlane;fontStyle=1;align=center;verticalAlign=top;childLayout=stackLayout;horizontal=1;startSize=26;horizontalStack=0;resizeParent=1;resizeParentMax=0;resizeLast=0;collapsible=1;marginBottom=0;whiteSpace=wrap;html=1;" parent="1" vertex="1">
          <mxGeometry x="240" y="232" width="160" height="86" as="geometry" />
        </mxCell>
        <mxCell id="kDYeB55ivnxlYFSKlEMg-11" value="employedBy: Airport" style="text;strokeColor=none;fillColor=none;align=left;verticalAlign=top;spacingLeft=4;spacingRight=4;overflow=hidden;rotatable=0;points=[[0,0.5],[1,0.5]];portConstraint=eastwest;whiteSpace=wrap;html=1;" parent="kDYeB55ivnxlYFSKlEMg-10" vertex="1">
          <mxGeometry y="26" width="160" height="26" as="geometry" />
        </mxCell>
        <mxCell id="kDYeB55ivnxlYFSKlEMg-12" value="" style="line;strokeWidth=1;fillColor=none;align=left;verticalAlign=middle;spacingTop=-1;spacingLeft=3;spacingRight=3;rotatable=0;labelPosition=right;points=[];portConstraint=eastwest;strokeColor=inherit;" parent="kDYeB55ivnxlYFSKlEMg-10" vertex="1">
          <mxGeometry y="52" width="160" height="8" as="geometry" />
        </mxCell>
        <mxCell id="kDYeB55ivnxlYFSKlEMg-13" value="&amp;nbsp;&lt;span style=&quot;white-space: pre;&quot;&gt;&#x9;&lt;/span&gt;" style="text;strokeColor=none;fillColor=none;align=left;verticalAlign=top;spacingLeft=4;spacingRight=4;overflow=hidden;rotatable=0;points=[[0,0.5],[1,0.5]];portConstraint=eastwest;whiteSpace=wrap;html=1;" parent="kDYeB55ivnxlYFSKlEMg-10" vertex="1">
          <mxGeometry y="60" width="160" height="26" as="geometry" />
        </mxCell>
        <mxCell id="kDYeB55ivnxlYFSKlEMg-14" value="AirlineAdmin" style="swimlane;fontStyle=1;align=center;verticalAlign=top;childLayout=stackLayout;horizontal=1;startSize=26;horizontalStack=0;resizeParent=1;resizeParentMax=0;resizeLast=0;collapsible=1;marginBottom=0;whiteSpace=wrap;html=1;" parent="1" vertex="1">
          <mxGeometry x="240" y="340" width="160" height="86" as="geometry" />
        </mxCell>
        <mxCell id="0rImnRtAhAogELXcTt_z-8" value="employedBy: Airline" style="text;strokeColor=none;fillColor=none;align=left;verticalAlign=top;spacingLeft=4;spacingRight=4;overflow=hidden;rotatable=0;points=[[0,0.5],[1,0.5]];portConstraint=eastwest;whiteSpace=wrap;html=1;" parent="kDYeB55ivnxlYFSKlEMg-14" vertex="1">
          <mxGeometry y="26" width="160" height="26" as="geometry" />
        </mxCell>
        <mxCell id="kDYeB55ivnxlYFSKlEMg-16" value="" style="line;strokeWidth=1;fillColor=none;align=left;verticalAlign=middle;spacingTop=-1;spacingLeft=3;spacingRight=3;rotatable=0;labelPosition=right;points=[];portConstraint=eastwest;strokeColor=inherit;" parent="kDYeB55ivnxlYFSKlEMg-14" vertex="1">
          <mxGeometry y="52" width="160" height="8" as="geometry" />
        </mxCell>
        <mxCell id="kDYeB55ivnxlYFSKlEMg-17" value="&amp;nbsp;&lt;span style=&quot;white-space: pre;&quot;&gt;&#x9;&lt;/span&gt;" style="text;strokeColor=none;fillColor=none;align=left;verticalAlign=top;spacingLeft=4;spacingRight=4;overflow=hidden;rotatable=0;points=[[0,0.5],[1,0.5]];portConstraint=eastwest;whiteSpace=wrap;html=1;" parent="kDYeB55ivnxlYFSKlEMg-14" vertex="1">
          <mxGeometry y="60" width="160" height="26" as="geometry" />
        </mxCell>
        <mxCell id="kDYeB55ivnxlYFSKlEMg-23" value="UI" style="swimlane;fontStyle=1;align=center;verticalAlign=top;childLayout=stackLayout;horizontal=1;startSize=26;horizontalStack=0;resizeParent=1;resizeParentMax=0;resizeLast=0;collapsible=1;marginBottom=0;whiteSpace=wrap;html=1;" parent="1" vertex="1">
          <mxGeometry x="510" y="400" width="160" height="86" as="geometry" />
        </mxCell>
        <mxCell id="0rImnRtAhAogELXcTt_z-34" value="&amp;nbsp;&lt;span style=&quot;white-space: pre;&quot;&gt;&#x9;&lt;/span&gt;" style="text;strokeColor=none;fillColor=none;align=left;verticalAlign=top;spacingLeft=4;spacingRight=4;overflow=hidden;rotatable=0;points=[[0,0.5],[1,0.5]];portConstraint=eastwest;whiteSpace=wrap;html=1;" parent="kDYeB55ivnxlYFSKlEMg-23" vertex="1">
          <mxGeometry y="26" width="160" height="26" as="geometry" />
        </mxCell>
        <mxCell id="kDYeB55ivnxlYFSKlEMg-25" value="" style="line;strokeWidth=1;fillColor=none;align=left;verticalAlign=middle;spacingTop=-1;spacingLeft=3;spacingRight=3;rotatable=0;labelPosition=right;points=[];portConstraint=eastwest;strokeColor=inherit;" parent="kDYeB55ivnxlYFSKlEMg-23" vertex="1">
          <mxGeometry y="52" width="160" height="8" as="geometry" />
        </mxCell>
        <mxCell id="0rImnRtAhAogELXcTt_z-20" value="&amp;nbsp;&lt;span style=&quot;white-space: pre;&quot;&gt;&#x9;&lt;/span&gt;" style="text;strokeColor=none;fillColor=none;align=left;verticalAlign=top;spacingLeft=4;spacingRight=4;overflow=hidden;rotatable=0;points=[[0,0.5],[1,0.5]];portConstraint=eastwest;whiteSpace=wrap;html=1;" parent="kDYeB55ivnxlYFSKlEMg-23" vertex="1">
          <mxGeometry y="60" width="160" height="26" as="geometry" />
        </mxCell>
        <mxCell id="kDYeB55ivnxlYFSKlEMg-28" value="Airport" style="swimlane;fontStyle=1;align=center;verticalAlign=top;childLayout=stackLayout;horizontal=1;startSize=26;horizontalStack=0;resizeParent=1;resizeParentMax=0;resizeLast=0;collapsible=1;marginBottom=0;whiteSpace=wrap;html=1;" parent="1" vertex="1">
          <mxGeometry x="990" y="860" width="160" height="138" as="geometry" />
        </mxCell>
        <mxCell id="kDYeB55ivnxlYFSKlEMg-29" value="name: String" style="text;strokeColor=none;fillColor=none;align=left;verticalAlign=top;spacingLeft=4;spacingRight=4;overflow=hidden;rotatable=0;points=[[0,0.5],[1,0.5]];portConstraint=eastwest;whiteSpace=wrap;html=1;" parent="kDYeB55ivnxlYFSKlEMg-28" vertex="1">
          <mxGeometry y="26" width="160" height="26" as="geometry" />
        </mxCell>
        <mxCell id="kDYeB55ivnxlYFSKlEMg-109" value="letterCode: String" style="text;strokeColor=none;fillColor=none;align=left;verticalAlign=top;spacingLeft=4;spacingRight=4;overflow=hidden;rotatable=0;points=[[0,0.5],[1,0.5]];portConstraint=eastwest;whiteSpace=wrap;html=1;" parent="kDYeB55ivnxlYFSKlEMg-28" vertex="1">
          <mxGeometry y="52" width="160" height="26" as="geometry" />
        </mxCell>
        <mxCell id="kDYeB55ivnxlYFSKlEMg-107" value="location: City" style="text;strokeColor=none;fillColor=none;align=left;verticalAlign=top;spacingLeft=4;spacingRight=4;overflow=hidden;rotatable=0;points=[[0,0.5],[1,0.5]];portConstraint=eastwest;whiteSpace=wrap;html=1;" parent="kDYeB55ivnxlYFSKlEMg-28" vertex="1">
          <mxGeometry y="78" width="160" height="26" as="geometry" />
        </mxCell>
        <mxCell id="kDYeB55ivnxlYFSKlEMg-30" value="" style="line;strokeWidth=1;fillColor=none;align=left;verticalAlign=middle;spacingTop=-1;spacingLeft=3;spacingRight=3;rotatable=0;labelPosition=right;points=[];portConstraint=eastwest;strokeColor=inherit;" parent="kDYeB55ivnxlYFSKlEMg-28" vertex="1">
          <mxGeometry y="104" width="160" height="8" as="geometry" />
        </mxCell>
        <mxCell id="kDYeB55ivnxlYFSKlEMg-31" value="&amp;nbsp;" style="text;strokeColor=none;fillColor=none;align=left;verticalAlign=top;spacingLeft=4;spacingRight=4;overflow=hidden;rotatable=0;points=[[0,0.5],[1,0.5]];portConstraint=eastwest;whiteSpace=wrap;html=1;" parent="kDYeB55ivnxlYFSKlEMg-28" vertex="1">
          <mxGeometry y="112" width="160" height="26" as="geometry" />
        </mxCell>
        <mxCell id="0rImnRtAhAogELXcTt_z-26" style="edgeStyle=orthogonalEdgeStyle;rounded=0;orthogonalLoop=1;jettySize=auto;html=1;entryX=0.5;entryY=0;entryDx=0;entryDy=0;endArrow=none;endFill=0;" parent="1" source="kDYeB55ivnxlYFSKlEMg-32" target="kDYeB55ivnxlYFSKlEMg-40" edge="1">
          <mxGeometry relative="1" as="geometry" />
        </mxCell>
        <mxCell id="kDYeB55ivnxlYFSKlEMg-32" value="Aircraft" style="swimlane;fontStyle=1;align=center;verticalAlign=top;childLayout=stackLayout;horizontal=1;startSize=26;horizontalStack=0;resizeParent=1;resizeParentMax=0;resizeLast=0;collapsible=1;marginBottom=0;whiteSpace=wrap;html=1;" parent="1" vertex="1">
          <mxGeometry x="1118" y="530" width="160" height="112" as="geometry" />
        </mxCell>
        <mxCell id="kDYeB55ivnxlYFSKlEMg-115" value="operator: Airline" style="text;strokeColor=none;fillColor=none;align=left;verticalAlign=top;spacingLeft=4;spacingRight=4;overflow=hidden;rotatable=0;points=[[0,0.5],[1,0.5]];portConstraint=eastwest;whiteSpace=wrap;html=1;" parent="kDYeB55ivnxlYFSKlEMg-32" vertex="1">
          <mxGeometry y="26" width="160" height="26" as="geometry" />
        </mxCell>
        <mxCell id="kDYeB55ivnxlYFSKlEMg-33" value="aircraftID: integer" style="text;strokeColor=none;fillColor=none;align=left;verticalAlign=top;spacingLeft=4;spacingRight=4;overflow=hidden;rotatable=0;points=[[0,0.5],[1,0.5]];portConstraint=eastwest;whiteSpace=wrap;html=1;" parent="kDYeB55ivnxlYFSKlEMg-32" vertex="1">
          <mxGeometry y="52" width="160" height="26" as="geometry" />
        </mxCell>
        <mxCell id="kDYeB55ivnxlYFSKlEMg-34" value="" style="line;strokeWidth=1;fillColor=none;align=left;verticalAlign=middle;spacingTop=-1;spacingLeft=3;spacingRight=3;rotatable=0;labelPosition=right;points=[];portConstraint=eastwest;strokeColor=inherit;" parent="kDYeB55ivnxlYFSKlEMg-32" vertex="1">
          <mxGeometry y="78" width="160" height="8" as="geometry" />
        </mxCell>
        <mxCell id="kDYeB55ivnxlYFSKlEMg-35" value="+ method(type): type" style="text;strokeColor=none;fillColor=none;align=left;verticalAlign=top;spacingLeft=4;spacingRight=4;overflow=hidden;rotatable=0;points=[[0,0.5],[1,0.5]];portConstraint=eastwest;whiteSpace=wrap;html=1;" parent="kDYeB55ivnxlYFSKlEMg-32" vertex="1">
          <mxGeometry y="86" width="160" height="26" as="geometry" />
        </mxCell>
        <mxCell id="kDYeB55ivnxlYFSKlEMg-40" value="Airline" style="swimlane;fontStyle=1;align=center;verticalAlign=top;childLayout=stackLayout;horizontal=1;startSize=26;horizontalStack=0;resizeParent=1;resizeParentMax=0;resizeLast=0;collapsible=1;marginBottom=0;whiteSpace=wrap;html=1;" parent="1" vertex="1">
          <mxGeometry x="1118" y="690" width="160" height="112" as="geometry" />
        </mxCell>
        <mxCell id="kDYeB55ivnxlYFSKlEMg-41" value="name: String" style="text;strokeColor=none;fillColor=none;align=left;verticalAlign=top;spacingLeft=4;spacingRight=4;overflow=hidden;rotatable=0;points=[[0,0.5],[1,0.5]];portConstraint=eastwest;whiteSpace=wrap;html=1;" parent="kDYeB55ivnxlYFSKlEMg-40" vertex="1">
          <mxGeometry y="26" width="160" height="26" as="geometry" />
        </mxCell>
        <mxCell id="kDYeB55ivnxlYFSKlEMg-114" value="fleet: ArrayList&amp;lt;Aircraft&amp;gt;" style="text;strokeColor=none;fillColor=none;align=left;verticalAlign=top;spacingLeft=4;spacingRight=4;overflow=hidden;rotatable=0;points=[[0,0.5],[1,0.5]];portConstraint=eastwest;whiteSpace=wrap;html=1;" parent="kDYeB55ivnxlYFSKlEMg-40" vertex="1">
          <mxGeometry y="52" width="160" height="26" as="geometry" />
        </mxCell>
        <mxCell id="kDYeB55ivnxlYFSKlEMg-42" value="" style="line;strokeWidth=1;fillColor=none;align=left;verticalAlign=middle;spacingTop=-1;spacingLeft=3;spacingRight=3;rotatable=0;labelPosition=right;points=[];portConstraint=eastwest;strokeColor=inherit;" parent="kDYeB55ivnxlYFSKlEMg-40" vertex="1">
          <mxGeometry y="78" width="160" height="8" as="geometry" />
        </mxCell>
        <mxCell id="kDYeB55ivnxlYFSKlEMg-43" value="&lt;blockquote style=&quot;margin: 0 0 0 40px; border: none; padding: 0px;&quot;&gt;&amp;nbsp;&lt;/blockquote&gt;" style="text;strokeColor=none;fillColor=none;align=left;verticalAlign=top;spacingLeft=4;spacingRight=4;overflow=hidden;rotatable=0;points=[[0,0.5],[1,0.5]];portConstraint=eastwest;whiteSpace=wrap;html=1;" parent="kDYeB55ivnxlYFSKlEMg-40" vertex="1">
          <mxGeometry y="86" width="160" height="26" as="geometry" />
        </mxCell>
        <mxCell id="0rImnRtAhAogELXcTt_z-23" style="edgeStyle=orthogonalEdgeStyle;rounded=0;orthogonalLoop=1;jettySize=auto;html=1;endArrow=diamondThin;endFill=1;endSize=12;" parent="1" source="kDYeB55ivnxlYFSKlEMg-44" target="kDYeB55ivnxlYFSKlEMg-89" edge="1">
          <mxGeometry relative="1" as="geometry" />
        </mxCell>
        <mxCell id="kDYeB55ivnxlYFSKlEMg-44" value="&amp;lt;abstract&amp;gt;&lt;br&gt;Flight" style="swimlane;fontStyle=1;align=center;verticalAlign=top;childLayout=stackLayout;horizontal=1;startSize=47;horizontalStack=0;resizeParent=1;resizeParentMax=0;resizeLast=0;collapsible=1;marginBottom=0;whiteSpace=wrap;html=1;" parent="1" vertex="1">
          <mxGeometry x="870" y="233" width="160" height="289" as="geometry" />
        </mxCell>
        <mxCell id="kDYeB55ivnxlYFSKlEMg-45" value="flightNumber: String" style="text;strokeColor=none;fillColor=none;align=left;verticalAlign=top;spacingLeft=4;spacingRight=4;overflow=hidden;rotatable=0;points=[[0,0.5],[1,0.5]];portConstraint=eastwest;whiteSpace=wrap;html=1;" parent="kDYeB55ivnxlYFSKlEMg-44" vertex="1">
          <mxGeometry y="47" width="160" height="26" as="geometry" />
        </mxCell>
        <mxCell id="kDYeB55ivnxlYFSKlEMg-100" value="source: Airport" style="text;strokeColor=none;fillColor=none;align=left;verticalAlign=top;spacingLeft=4;spacingRight=4;overflow=hidden;rotatable=0;points=[[0,0.5],[1,0.5]];portConstraint=eastwest;whiteSpace=wrap;html=1;" parent="kDYeB55ivnxlYFSKlEMg-44" vertex="1">
          <mxGeometry y="73" width="160" height="26" as="geometry" />
        </mxCell>
        <mxCell id="kDYeB55ivnxlYFSKlEMg-102" value="destination: Airport" style="text;strokeColor=none;fillColor=none;align=left;verticalAlign=top;spacingLeft=4;spacingRight=4;overflow=hidden;rotatable=0;points=[[0,0.5],[1,0.5]];portConstraint=eastwest;whiteSpace=wrap;html=1;" parent="kDYeB55ivnxlYFSKlEMg-44" vertex="1">
          <mxGeometry y="99" width="160" height="26" as="geometry" />
        </mxCell>
        <mxCell id="kDYeB55ivnxlYFSKlEMg-101" value="scheduledDepart: Date" style="text;strokeColor=none;fillColor=none;align=left;verticalAlign=top;spacingLeft=4;spacingRight=4;overflow=hidden;rotatable=0;points=[[0,0.5],[1,0.5]];portConstraint=eastwest;whiteSpace=wrap;html=1;" parent="kDYeB55ivnxlYFSKlEMg-44" vertex="1">
          <mxGeometry y="125" width="160" height="26" as="geometry" />
        </mxCell>
        <mxCell id="kDYeB55ivnxlYFSKlEMg-99" value="scheduledArriv: Date" style="text;strokeColor=none;fillColor=none;align=left;verticalAlign=top;spacingLeft=4;spacingRight=4;overflow=hidden;rotatable=0;points=[[0,0.5],[1,0.5]];portConstraint=eastwest;whiteSpace=wrap;html=1;" parent="kDYeB55ivnxlYFSKlEMg-44" vertex="1">
          <mxGeometry y="151" width="160" height="26" as="geometry" />
        </mxCell>
        <mxCell id="kDYeB55ivnxlYFSKlEMg-104" value="actualDepart: Date" style="text;strokeColor=none;fillColor=none;align=left;verticalAlign=top;spacingLeft=4;spacingRight=4;overflow=hidden;rotatable=0;points=[[0,0.5],[1,0.5]];portConstraint=eastwest;whiteSpace=wrap;html=1;" parent="kDYeB55ivnxlYFSKlEMg-44" vertex="1">
          <mxGeometry y="177" width="160" height="26" as="geometry" />
        </mxCell>
        <mxCell id="kDYeB55ivnxlYFSKlEMg-105" value="actualArriv: Date" style="text;strokeColor=none;fillColor=none;align=left;verticalAlign=top;spacingLeft=4;spacingRight=4;overflow=hidden;rotatable=0;points=[[0,0.5],[1,0.5]];portConstraint=eastwest;whiteSpace=wrap;html=1;" parent="kDYeB55ivnxlYFSKlEMg-44" vertex="1">
          <mxGeometry y="203" width="160" height="26" as="geometry" />
        </mxCell>
        <mxCell id="kDYeB55ivnxlYFSKlEMg-103" value="plane: Aircraft" style="text;strokeColor=none;fillColor=none;align=left;verticalAlign=top;spacingLeft=4;spacingRight=4;overflow=hidden;rotatable=0;points=[[0,0.5],[1,0.5]];portConstraint=eastwest;whiteSpace=wrap;html=1;" parent="kDYeB55ivnxlYFSKlEMg-44" vertex="1">
          <mxGeometry y="229" width="160" height="26" as="geometry" />
        </mxCell>
        <mxCell id="kDYeB55ivnxlYFSKlEMg-46" value="" style="line;strokeWidth=1;fillColor=none;align=left;verticalAlign=middle;spacingTop=-1;spacingLeft=3;spacingRight=3;rotatable=0;labelPosition=right;points=[];portConstraint=eastwest;strokeColor=inherit;" parent="kDYeB55ivnxlYFSKlEMg-44" vertex="1">
          <mxGeometry y="255" width="160" height="8" as="geometry" />
        </mxCell>
        <mxCell id="kDYeB55ivnxlYFSKlEMg-47" value="toString()" style="text;strokeColor=none;fillColor=none;align=left;verticalAlign=top;spacingLeft=4;spacingRight=4;overflow=hidden;rotatable=0;points=[[0,0.5],[1,0.5]];portConstraint=eastwest;whiteSpace=wrap;html=1;" parent="kDYeB55ivnxlYFSKlEMg-44" vertex="1">
          <mxGeometry y="263" width="160" height="26" as="geometry" />
        </mxCell>
        <mxCell id="kDYeB55ivnxlYFSKlEMg-48" value="City" style="swimlane;fontStyle=1;align=center;verticalAlign=top;childLayout=stackLayout;horizontal=1;startSize=26;horizontalStack=0;resizeParent=1;resizeParentMax=0;resizeLast=0;collapsible=1;marginBottom=0;whiteSpace=wrap;html=1;" parent="1" vertex="1">
          <mxGeometry x="760" y="870" width="160" height="138" as="geometry" />
        </mxCell>
        <mxCell id="kDYeB55ivnxlYFSKlEMg-49" value="name: String" style="text;strokeColor=none;fillColor=none;align=left;verticalAlign=top;spacingLeft=4;spacingRight=4;overflow=hidden;rotatable=0;points=[[0,0.5],[1,0.5]];portConstraint=eastwest;whiteSpace=wrap;html=1;" parent="kDYeB55ivnxlYFSKlEMg-48" vertex="1">
          <mxGeometry y="26" width="160" height="26" as="geometry" />
        </mxCell>
        <mxCell id="kDYeB55ivnxlYFSKlEMg-110" value="country: String" style="text;strokeColor=none;fillColor=none;align=left;verticalAlign=top;spacingLeft=4;spacingRight=4;overflow=hidden;rotatable=0;points=[[0,0.5],[1,0.5]];portConstraint=eastwest;whiteSpace=wrap;html=1;" parent="kDYeB55ivnxlYFSKlEMg-48" vertex="1">
          <mxGeometry y="52" width="160" height="26" as="geometry" />
        </mxCell>
        <mxCell id="kDYeB55ivnxlYFSKlEMg-111" value="temp: Temperature" style="text;strokeColor=none;fillColor=none;align=left;verticalAlign=top;spacingLeft=4;spacingRight=4;overflow=hidden;rotatable=0;points=[[0,0.5],[1,0.5]];portConstraint=eastwest;whiteSpace=wrap;html=1;" parent="kDYeB55ivnxlYFSKlEMg-48" vertex="1">
          <mxGeometry y="78" width="160" height="26" as="geometry" />
        </mxCell>
        <mxCell id="kDYeB55ivnxlYFSKlEMg-50" value="" style="line;strokeWidth=1;fillColor=none;align=left;verticalAlign=middle;spacingTop=-1;spacingLeft=3;spacingRight=3;rotatable=0;labelPosition=right;points=[];portConstraint=eastwest;strokeColor=inherit;" parent="kDYeB55ivnxlYFSKlEMg-48" vertex="1">
          <mxGeometry y="104" width="160" height="8" as="geometry" />
        </mxCell>
        <mxCell id="kDYeB55ivnxlYFSKlEMg-51" value="&amp;nbsp;" style="text;strokeColor=none;fillColor=none;align=left;verticalAlign=top;spacingLeft=4;spacingRight=4;overflow=hidden;rotatable=0;points=[[0,0.5],[1,0.5]];portConstraint=eastwest;whiteSpace=wrap;html=1;" parent="kDYeB55ivnxlYFSKlEMg-48" vertex="1">
          <mxGeometry y="112" width="160" height="26" as="geometry" />
        </mxCell>
        <mxCell id="kDYeB55ivnxlYFSKlEMg-52" value="Non-Private Flights" style="swimlane;fontStyle=1;align=center;verticalAlign=top;childLayout=stackLayout;horizontal=1;startSize=26;horizontalStack=0;resizeParent=1;resizeParentMax=0;resizeLast=0;collapsible=1;marginBottom=0;whiteSpace=wrap;html=1;" parent="1" vertex="1">
          <mxGeometry x="1118" y="370" width="160" height="86" as="geometry" />
        </mxCell>
        <mxCell id="kDYeB55ivnxlYFSKlEMg-53" value="operator: Airline" style="text;strokeColor=none;fillColor=none;align=left;verticalAlign=top;spacingLeft=4;spacingRight=4;overflow=hidden;rotatable=0;points=[[0,0.5],[1,0.5]];portConstraint=eastwest;whiteSpace=wrap;html=1;" parent="kDYeB55ivnxlYFSKlEMg-52" vertex="1">
          <mxGeometry y="26" width="160" height="26" as="geometry" />
        </mxCell>
        <mxCell id="kDYeB55ivnxlYFSKlEMg-54" value="" style="line;strokeWidth=1;fillColor=none;align=left;verticalAlign=middle;spacingTop=-1;spacingLeft=3;spacingRight=3;rotatable=0;labelPosition=right;points=[];portConstraint=eastwest;strokeColor=inherit;" parent="kDYeB55ivnxlYFSKlEMg-52" vertex="1">
          <mxGeometry y="52" width="160" height="8" as="geometry" />
        </mxCell>
        <mxCell id="kDYeB55ivnxlYFSKlEMg-119" value="toString()" style="text;strokeColor=none;fillColor=none;align=left;verticalAlign=top;spacingLeft=4;spacingRight=4;overflow=hidden;rotatable=0;points=[[0,0.5],[1,0.5]];portConstraint=eastwest;whiteSpace=wrap;html=1;" parent="kDYeB55ivnxlYFSKlEMg-52" vertex="1">
          <mxGeometry y="60" width="160" height="26" as="geometry" />
        </mxCell>
        <mxCell id="kDYeB55ivnxlYFSKlEMg-116" style="rounded=0;orthogonalLoop=1;jettySize=auto;html=1;entryX=1;entryY=0.5;entryDx=0;entryDy=0;endArrow=block;endFill=1;strokeWidth=2;dashed=1;dashPattern=8 8;" parent="1" source="kDYeB55ivnxlYFSKlEMg-57" target="kDYeB55ivnxlYFSKlEMg-102" edge="1">
          <mxGeometry relative="1" as="geometry" />
        </mxCell>
        <mxCell id="kDYeB55ivnxlYFSKlEMg-57" value="Private Flight" style="swimlane;fontStyle=1;align=center;verticalAlign=top;childLayout=stackLayout;horizontal=1;startSize=26;horizontalStack=0;resizeParent=1;resizeParentMax=0;resizeLast=0;collapsible=1;marginBottom=0;whiteSpace=wrap;html=1;" parent="1" vertex="1">
          <mxGeometry x="1118" y="240" width="160" height="86" as="geometry" />
        </mxCell>
        <mxCell id="kDYeB55ivnxlYFSKlEMg-58" value="operator: Airport" style="text;strokeColor=none;fillColor=none;align=left;verticalAlign=top;spacingLeft=4;spacingRight=4;overflow=hidden;rotatable=0;points=[[0,0.5],[1,0.5]];portConstraint=eastwest;whiteSpace=wrap;html=1;" parent="kDYeB55ivnxlYFSKlEMg-57" vertex="1">
          <mxGeometry y="26" width="160" height="26" as="geometry" />
        </mxCell>
        <mxCell id="kDYeB55ivnxlYFSKlEMg-59" value="" style="line;strokeWidth=1;fillColor=none;align=left;verticalAlign=middle;spacingTop=-1;spacingLeft=3;spacingRight=3;rotatable=0;labelPosition=right;points=[];portConstraint=eastwest;strokeColor=inherit;" parent="kDYeB55ivnxlYFSKlEMg-57" vertex="1">
          <mxGeometry y="52" width="160" height="8" as="geometry" />
        </mxCell>
        <mxCell id="kDYeB55ivnxlYFSKlEMg-118" value="toString()" style="text;strokeColor=none;fillColor=none;align=left;verticalAlign=top;spacingLeft=4;spacingRight=4;overflow=hidden;rotatable=0;points=[[0,0.5],[1,0.5]];portConstraint=eastwest;whiteSpace=wrap;html=1;" parent="kDYeB55ivnxlYFSKlEMg-57" vertex="1">
          <mxGeometry y="60" width="160" height="26" as="geometry" />
        </mxCell>
        <mxCell id="kDYeB55ivnxlYFSKlEMg-61" value="Temperature" style="swimlane;fontStyle=1;align=center;verticalAlign=top;childLayout=stackLayout;horizontal=1;startSize=26;horizontalStack=0;resizeParent=1;resizeParentMax=0;resizeLast=0;collapsible=1;marginBottom=0;whiteSpace=wrap;html=1;" parent="1" vertex="1">
          <mxGeometry x="530" y="870" width="160" height="112" as="geometry" />
        </mxCell>
        <mxCell id="kDYeB55ivnxlYFSKlEMg-62" value="temperature: double" style="text;strokeColor=none;fillColor=none;align=left;verticalAlign=top;spacingLeft=4;spacingRight=4;overflow=hidden;rotatable=0;points=[[0,0.5],[1,0.5]];portConstraint=eastwest;whiteSpace=wrap;html=1;" parent="kDYeB55ivnxlYFSKlEMg-61" vertex="1">
          <mxGeometry y="26" width="160" height="26" as="geometry" />
        </mxCell>
        <mxCell id="kDYeB55ivnxlYFSKlEMg-112" value="metric: String" style="text;strokeColor=none;fillColor=none;align=left;verticalAlign=top;spacingLeft=4;spacingRight=4;overflow=hidden;rotatable=0;points=[[0,0.5],[1,0.5]];portConstraint=eastwest;whiteSpace=wrap;html=1;" parent="kDYeB55ivnxlYFSKlEMg-61" vertex="1">
          <mxGeometry y="52" width="160" height="26" as="geometry" />
        </mxCell>
        <mxCell id="kDYeB55ivnxlYFSKlEMg-63" value="" style="line;strokeWidth=1;fillColor=none;align=left;verticalAlign=middle;spacingTop=-1;spacingLeft=3;spacingRight=3;rotatable=0;labelPosition=right;points=[];portConstraint=eastwest;strokeColor=inherit;" parent="kDYeB55ivnxlYFSKlEMg-61" vertex="1">
          <mxGeometry y="78" width="160" height="8" as="geometry" />
        </mxCell>
        <mxCell id="kDYeB55ivnxlYFSKlEMg-64" value="toString()" style="text;strokeColor=none;fillColor=none;align=left;verticalAlign=top;spacingLeft=4;spacingRight=4;overflow=hidden;rotatable=0;points=[[0,0.5],[1,0.5]];portConstraint=eastwest;whiteSpace=wrap;html=1;" parent="kDYeB55ivnxlYFSKlEMg-61" vertex="1">
          <mxGeometry y="86" width="160" height="26" as="geometry" />
        </mxCell>
        <mxCell id="kDYeB55ivnxlYFSKlEMg-66" value="FlightTracker (Main)" style="swimlane;fontStyle=1;align=center;verticalAlign=top;childLayout=stackLayout;horizontal=1;startSize=26;horizontalStack=0;resizeParent=1;resizeParentMax=0;resizeLast=0;collapsible=1;marginBottom=0;whiteSpace=wrap;html=1;" parent="1" vertex="1">
          <mxGeometry x="520" y="600" width="160" height="190" as="geometry" />
        </mxCell>
        <mxCell id="kDYeB55ivnxlYFSKlEMg-67" value="Database: Database" style="text;strokeColor=none;fillColor=none;align=left;verticalAlign=top;spacingLeft=4;spacingRight=4;overflow=hidden;rotatable=0;points=[[0,0.5],[1,0.5]];portConstraint=eastwest;whiteSpace=wrap;html=1;" parent="kDYeB55ivnxlYFSKlEMg-66" vertex="1">
          <mxGeometry y="26" width="160" height="26" as="geometry" />
        </mxCell>
        <mxCell id="0rImnRtAhAogELXcTt_z-10" value="UserDB: Database" style="text;strokeColor=none;fillColor=none;align=left;verticalAlign=top;spacingLeft=4;spacingRight=4;overflow=hidden;rotatable=0;points=[[0,0.5],[1,0.5]];portConstraint=eastwest;whiteSpace=wrap;html=1;" parent="kDYeB55ivnxlYFSKlEMg-66" vertex="1">
          <mxGeometry y="52" width="160" height="26" as="geometry" />
        </mxCell>
        <mxCell id="0rImnRtAhAogELXcTt_z-37" value="loggedUser: User" style="text;strokeColor=none;fillColor=none;align=left;verticalAlign=top;spacingLeft=4;spacingRight=4;overflow=hidden;rotatable=0;points=[[0,0.5],[1,0.5]];portConstraint=eastwest;whiteSpace=wrap;html=1;" parent="kDYeB55ivnxlYFSKlEMg-66" vertex="1">
          <mxGeometry y="78" width="160" height="26" as="geometry" />
        </mxCell>
        <mxCell id="kDYeB55ivnxlYFSKlEMg-68" value="" style="line;strokeWidth=1;fillColor=none;align=left;verticalAlign=middle;spacingTop=-1;spacingLeft=3;spacingRight=3;rotatable=0;labelPosition=right;points=[];portConstraint=eastwest;strokeColor=inherit;" parent="kDYeB55ivnxlYFSKlEMg-66" vertex="1">
          <mxGeometry y="104" width="160" height="8" as="geometry" />
        </mxCell>
        <mxCell id="0rImnRtAhAogELXcTt_z-30" value="createRegistry()&amp;nbsp;&lt;span style=&quot;white-space: pre;&quot;&gt;&#x9;&lt;/span&gt;&lt;span style=&quot;white-space: pre;&quot;&gt;&#x9;&lt;/span&gt;" style="text;strokeColor=none;fillColor=none;align=left;verticalAlign=top;spacingLeft=4;spacingRight=4;overflow=hidden;rotatable=0;points=[[0,0.5],[1,0.5]];portConstraint=eastwest;whiteSpace=wrap;html=1;" parent="kDYeB55ivnxlYFSKlEMg-66" vertex="1">
          <mxGeometry y="112" width="160" height="26" as="geometry" />
        </mxCell>
        <mxCell id="0rImnRtAhAogELXcTt_z-32" value="connectRegistry()&amp;nbsp;&lt;span style=&quot;white-space: pre;&quot;&gt;&#x9;&lt;/span&gt;&lt;span style=&quot;white-space: pre;&quot;&gt;&#x9;&lt;/span&gt;" style="text;strokeColor=none;fillColor=none;align=left;verticalAlign=top;spacingLeft=4;spacingRight=4;overflow=hidden;rotatable=0;points=[[0,0.5],[1,0.5]];portConstraint=eastwest;whiteSpace=wrap;html=1;" parent="kDYeB55ivnxlYFSKlEMg-66" vertex="1">
          <mxGeometry y="138" width="160" height="26" as="geometry" />
        </mxCell>
        <mxCell id="kDYeB55ivnxlYFSKlEMg-69" value="viewFlights()&amp;nbsp;&lt;span style=&quot;white-space: pre;&quot;&gt;&#x9;&lt;/span&gt;&lt;span style=&quot;white-space: pre;&quot;&gt;&#x9;&lt;/span&gt;" style="text;strokeColor=none;fillColor=none;align=left;verticalAlign=top;spacingLeft=4;spacingRight=4;overflow=hidden;rotatable=0;points=[[0,0.5],[1,0.5]];portConstraint=eastwest;whiteSpace=wrap;html=1;" parent="kDYeB55ivnxlYFSKlEMg-66" vertex="1">
          <mxGeometry y="164" width="160" height="26" as="geometry" />
        </mxCell>
        <mxCell id="kDYeB55ivnxlYFSKlEMg-89" value="Registry" style="swimlane;fontStyle=1;align=center;verticalAlign=top;childLayout=stackLayout;horizontal=1;startSize=26;horizontalStack=0;resizeParent=1;resizeParentMax=0;resizeLast=0;collapsible=1;marginBottom=0;whiteSpace=wrap;html=1;" parent="1" vertex="1">
          <mxGeometry x="810" y="600" width="200" height="216" as="geometry" />
        </mxCell>
        <mxCell id="kDYeB55ivnxlYFSKlEMg-90" value="&amp;nbsp;Flights: ArrayList&amp;lt;Flight&amp;gt;" style="text;strokeColor=none;fillColor=none;align=left;verticalAlign=top;spacingLeft=4;spacingRight=4;overflow=hidden;rotatable=0;points=[[0,0.5],[1,0.5]];portConstraint=eastwest;whiteSpace=wrap;html=1;" parent="kDYeB55ivnxlYFSKlEMg-89" vertex="1">
          <mxGeometry y="26" width="200" height="26" as="geometry" />
        </mxCell>
        <mxCell id="kDYeB55ivnxlYFSKlEMg-94" value="&amp;nbsp;Airports: ArrayList&amp;lt;Airport&amp;gt;" style="text;strokeColor=none;fillColor=none;align=left;verticalAlign=top;spacingLeft=4;spacingRight=4;overflow=hidden;rotatable=0;points=[[0,0.5],[1,0.5]];portConstraint=eastwest;whiteSpace=wrap;html=1;" parent="kDYeB55ivnxlYFSKlEMg-89" vertex="1">
          <mxGeometry y="52" width="200" height="26" as="geometry" />
        </mxCell>
        <mxCell id="kDYeB55ivnxlYFSKlEMg-95" value="&amp;nbsp;Aircrafts: ArrayList&amp;lt;Aircraft&amp;gt;" style="text;strokeColor=none;fillColor=none;align=left;verticalAlign=top;spacingLeft=4;spacingRight=4;overflow=hidden;rotatable=0;points=[[0,0.5],[1,0.5]];portConstraint=eastwest;whiteSpace=wrap;html=1;" parent="kDYeB55ivnxlYFSKlEMg-89" vertex="1">
          <mxGeometry y="78" width="200" height="26" as="geometry" />
        </mxCell>
        <mxCell id="kDYeB55ivnxlYFSKlEMg-93" value="&amp;nbsp;Airlines: ArrayList&amp;lt;Airline&amp;gt;" style="text;strokeColor=none;fillColor=none;align=left;verticalAlign=top;spacingLeft=4;spacingRight=4;overflow=hidden;rotatable=0;points=[[0,0.5],[1,0.5]];portConstraint=eastwest;whiteSpace=wrap;html=1;" parent="kDYeB55ivnxlYFSKlEMg-89" vertex="1">
          <mxGeometry y="104" width="200" height="26" as="geometry" />
        </mxCell>
        <mxCell id="kDYeB55ivnxlYFSKlEMg-24" value="&amp;nbsp;Users: ArrayList&amp;lt;User&amp;gt;" style="text;strokeColor=none;fillColor=none;align=left;verticalAlign=top;spacingLeft=4;spacingRight=4;overflow=hidden;rotatable=0;points=[[0,0.5],[1,0.5]];portConstraint=eastwest;whiteSpace=wrap;html=1;" parent="kDYeB55ivnxlYFSKlEMg-89" vertex="1">
          <mxGeometry y="130" width="200" height="26" as="geometry" />
        </mxCell>
        <mxCell id="kDYeB55ivnxlYFSKlEMg-91" value="" style="line;strokeWidth=1;fillColor=none;align=left;verticalAlign=middle;spacingTop=-1;spacingLeft=3;spacingRight=3;rotatable=0;labelPosition=right;points=[];portConstraint=eastwest;strokeColor=inherit;" parent="kDYeB55ivnxlYFSKlEMg-89" vertex="1">
          <mxGeometry y="156" width="200" height="8" as="geometry" />
        </mxCell>
        <mxCell id="kDYeB55ivnxlYFSKlEMg-92" value="loadRegistry()" style="text;strokeColor=none;fillColor=none;align=left;verticalAlign=top;spacingLeft=4;spacingRight=4;overflow=hidden;rotatable=0;points=[[0,0.5],[1,0.5]];portConstraint=eastwest;whiteSpace=wrap;html=1;" parent="kDYeB55ivnxlYFSKlEMg-89" vertex="1">
          <mxGeometry y="164" width="200" height="26" as="geometry" />
        </mxCell>
        <mxCell id="0rImnRtAhAogELXcTt_z-33" value="saveReistry()" style="text;strokeColor=none;fillColor=none;align=left;verticalAlign=top;spacingLeft=4;spacingRight=4;overflow=hidden;rotatable=0;points=[[0,0.5],[1,0.5]];portConstraint=eastwest;whiteSpace=wrap;html=1;" parent="kDYeB55ivnxlYFSKlEMg-89" vertex="1">
          <mxGeometry y="190" width="200" height="26" as="geometry" />
        </mxCell>
        <mxCell id="kDYeB55ivnxlYFSKlEMg-117" style="rounded=0;orthogonalLoop=1;jettySize=auto;html=1;entryX=1;entryY=0.5;entryDx=0;entryDy=0;endArrow=block;endFill=1;strokeWidth=2;dashed=1;dashPattern=8 8;" parent="1" source="kDYeB55ivnxlYFSKlEMg-52" target="kDYeB55ivnxlYFSKlEMg-99" edge="1">
          <mxGeometry relative="1" as="geometry" />
        </mxCell>
        <mxCell id="0rImnRtAhAogELXcTt_z-4" style="rounded=0;orthogonalLoop=1;jettySize=auto;html=1;entryX=0;entryY=0.5;entryDx=0;entryDy=0;endArrow=block;endFill=1;strokeWidth=2;exitX=1.007;exitY=1.177;exitDx=0;exitDy=0;exitPerimeter=0;" parent="1" source="kDYeB55ivnxlYFSKlEMg-2" target="kDYeB55ivnxlYFSKlEMg-6" edge="1">
          <mxGeometry relative="1" as="geometry" />
        </mxCell>
        <mxCell id="0rImnRtAhAogELXcTt_z-6" style="rounded=0;orthogonalLoop=1;jettySize=auto;html=1;entryX=0;entryY=0.5;entryDx=0;entryDy=0;endArrow=block;endFill=1;strokeWidth=2;" parent="1" source="kDYeB55ivnxlYFSKlEMg-11" target="0rImnRtAhAogELXcTt_z-1" edge="1">
          <mxGeometry relative="1" as="geometry" />
        </mxCell>
        <mxCell id="0rImnRtAhAogELXcTt_z-7" style="rounded=0;orthogonalLoop=1;jettySize=auto;html=1;entryX=0.002;entryY=0.213;entryDx=0;entryDy=0;entryPerimeter=0;endArrow=block;endFill=1;strokeWidth=2;" parent="1" target="kDYeB55ivnxlYFSKlEMg-8" edge="1">
          <mxGeometry relative="1" as="geometry">
            <mxPoint x="400" y="379.0434782608696" as="sourcePoint" />
          </mxGeometry>
        </mxCell>
        <mxCell id="0rImnRtAhAogELXcTt_z-18" style="edgeStyle=orthogonalEdgeStyle;rounded=0;orthogonalLoop=1;jettySize=auto;html=1;entryX=1;entryY=0.5;entryDx=0;entryDy=0;endArrow=diamondThin;endFill=0;strokeWidth=1;endSize=12;" parent="1" source="kDYeB55ivnxlYFSKlEMg-90" target="kDYeB55ivnxlYFSKlEMg-67" edge="1">
          <mxGeometry relative="1" as="geometry" />
        </mxCell>
        <mxCell id="0rImnRtAhAogELXcTt_z-24" style="edgeStyle=orthogonalEdgeStyle;rounded=0;orthogonalLoop=1;jettySize=auto;html=1;entryX=1;entryY=0.5;entryDx=0;entryDy=0;endArrow=diamondThin;endFill=1;endSize=12;" parent="1" source="kDYeB55ivnxlYFSKlEMg-33" target="kDYeB55ivnxlYFSKlEMg-94" edge="1">
          <mxGeometry relative="1" as="geometry" />
        </mxCell>
        <mxCell id="0rImnRtAhAogELXcTt_z-25" style="edgeStyle=orthogonalEdgeStyle;rounded=0;orthogonalLoop=1;jettySize=auto;html=1;entryX=1.01;entryY=0.883;entryDx=0;entryDy=0;entryPerimeter=0;endArrow=diamondThin;endFill=1;endSize=12;" parent="1" source="kDYeB55ivnxlYFSKlEMg-114" target="kDYeB55ivnxlYFSKlEMg-95" edge="1">
          <mxGeometry relative="1" as="geometry" />
        </mxCell>
        <mxCell id="0rImnRtAhAogELXcTt_z-28" style="edgeStyle=orthogonalEdgeStyle;rounded=0;orthogonalLoop=1;jettySize=auto;html=1;entryX=0.639;entryY=1.097;entryDx=0;entryDy=0;entryPerimeter=0;endArrow=diamondThin;endFill=1;startSize=6;endSize=12;" parent="1" source="kDYeB55ivnxlYFSKlEMg-28" target="0rImnRtAhAogELXcTt_z-33" edge="1">
          <mxGeometry relative="1" as="geometry">
            <Array as="points">
              <mxPoint x="1070" y="840" />
              <mxPoint x="938" y="840" />
            </Array>
          </mxGeometry>
        </mxCell>
        <mxCell id="0rImnRtAhAogELXcTt_z-31" style="edgeStyle=orthogonalEdgeStyle;rounded=0;orthogonalLoop=1;jettySize=auto;html=1;endArrow=diamondThin;endFill=0;jumpSize=6;startSize=6;endSize=12;entryX=-0.007;entryY=1.058;entryDx=0;entryDy=0;entryPerimeter=0;" parent="1" source="kDYeB55ivnxlYFSKlEMg-48" target="kDYeB55ivnxlYFSKlEMg-109" edge="1">
          <mxGeometry relative="1" as="geometry">
            <mxPoint x="990" y="932" as="targetPoint" />
          </mxGeometry>
        </mxCell>
        <mxCell id="0rImnRtAhAogELXcTt_z-35" style="edgeStyle=orthogonalEdgeStyle;rounded=0;orthogonalLoop=1;jettySize=auto;html=1;entryX=0.434;entryY=-0.045;entryDx=0;entryDy=0;entryPerimeter=0;" parent="1" source="kDYeB55ivnxlYFSKlEMg-23" target="kDYeB55ivnxlYFSKlEMg-66" edge="1">
          <mxGeometry relative="1" as="geometry" />
        </mxCell>
        <mxCell id="0rImnRtAhAogELXcTt_z-36" style="edgeStyle=orthogonalEdgeStyle;rounded=0;orthogonalLoop=1;jettySize=auto;html=1;entryX=-0.006;entryY=-0.136;entryDx=0;entryDy=0;entryPerimeter=0;endArrow=diamondThin;endFill=1;startSize=6;endSize=12;" parent="1" source="kDYeB55ivnxlYFSKlEMg-61" target="kDYeB55ivnxlYFSKlEMg-49" edge="1">
          <mxGeometry relative="1" as="geometry" />
        </mxCell>
      </root>
    </mxGraphModel>
  </diagram>
</mxfile>
